Coordinates
version=1
nRows=12
nColumns=34
inDegrees=yes

Units are S.I. units (second, meters, Newtons, ...)
If the header above contains a line with 'inDegrees', this indicates whether rotational values are in degrees (yes) or radians (no).

endheader
time	pelvis_tilt	pelvis_list	pelvis_rotation	pelvis_tx	pelvis_ty	pelvis_tz	hip_flexion_r	hip_adduction_r	hip_rotation_r	knee_angle_r	ankle_angle_r	subtalar_angle_r	mtp_angle_r	hip_flexion_l	hip_adduction_l	hip_rotation_l	knee_angle_l	ankle_angle_l	subtalar_angle_l	mtp_angle_l	lumbar_extension	lumbar_bending	lumbar_rotation	arm_flex_r	arm_add_r	arm_rot_r	elbow_flex_r	pro_sup_r	arm_flex_l	arm_add_l	arm_rot_l	elbow_flex_l	pro_sup_l
      4.28333330	      0.48746626	      3.54955532	    -28.32182863	      0.08060806	      0.99919185	     -0.04875643	     -4.58011685	     -2.15874779	     -5.07857817	      3.40250705	     11.36038300	      3.58057976	      0.00000000	     -2.55480874	     -2.58165421	     -5.40381338	      6.19117545	     10.30788853	      2.78189589	      0.00000000	     -2.12576686	     -0.61478328	      2.54159155	      4.31597679	    -98.30618787	    -34.17303847	     23.49126153	    113.60423414	     -0.29365208	    -89.51395101	    -50.62660849	     23.38780814	    119.74817918
      4.30000000	      0.48949201	      3.55256565	    -28.32367814	      0.08054417	      0.99913710	     -0.04875727	     -4.57954031	     -2.15810854	     -5.07841816	      3.40152195	     11.36029049	      3.58081079	      0.00000000	     -2.55436016	     -2.58166742	     -5.40400921	      6.19038294	     10.30783368	      2.78180843	      0.00000000	     -2.12690356	     -0.61206406	      2.54080143	      4.31564530	    -98.30508199	    -34.17331549	     23.49148498	    113.60435303	     -0.29347567	    -89.51480381	    -50.62677803	     23.38787204	    119.74817918
      4.31666670	      0.48058795	      3.55942526	    -28.37150815	      0.08006832	      0.99918224	     -0.04892760	     -4.54825855	     -2.15902441	     -5.07408976	      3.35116916	     11.35716324	      3.58836502	      0.00000000	     -2.52909472	     -2.57490083	     -5.40883981	      6.15892904	     10.30428557	      2.78006295	      0.00000000	     -2.20021444	     -0.59876432	      2.55812454	      4.29582415	    -98.28250361	    -34.18550264	     23.51631596	    113.60966067	     -0.28735012	    -89.53826700	    -50.63260585	     23.38481081	    119.74817918
      4.33333330	      0.48485988	      3.56471910	    -28.38143821	      0.08002188	      0.99918446	     -0.04886913	     -4.55136745	     -2.15702193	     -5.07379665	      3.35142904	     11.35652915	      3.58891715	      0.00000000	     -2.52540722	     -2.57719904	     -5.40878198	      6.15665168	     10.30383904	      2.77997322	      0.00000000	     -2.20040059	     -0.59705408	      2.55377862	      4.29526294	    -98.28174874	    -34.18665497	     23.51695979	    113.60993352	     -0.28718596	    -89.53905759	    -50.63273994	     23.38480555	    119.74817918
      4.35000000	      0.48561878	      3.56799601	    -28.40943803	      0.07991970	      0.99917666	     -0.04881408	     -4.54830853	     -2.15611094	     -5.07353014	      3.34372311	     11.35532899	      3.59017004	      0.00000000	     -2.52514666	     -2.57770314	     -5.40819762	      6.15583933	     10.30179023	      2.78043773	      0.00000000	     -2.20652691	     -0.59413532	      2.54305056	      4.29157725	    -98.27729349	    -34.18935359	     23.52084890	    113.61095608	     -0.28715763	    -89.54241915	    -50.63263582	     23.38601224	    119.74817918
      4.36666670	      0.48997533	      3.57218879	    -28.41433617	      0.07983836	      0.99920253	     -0.04874701	     -4.54841382	     -2.15543853	     -5.07369218	      3.34157676	     11.35500342	      3.59044499	      0.00000000	     -2.52210648	     -2.57800273	     -5.40783522	      6.15413050	     10.30124591	      2.78068118	      0.00000000	     -2.20858122	     -0.58975400	      2.54463696	      4.28969419	    -98.27479631	    -34.18980007	     23.52268155	    113.61133151	     -0.28704923	    -89.54396401	    -50.63270767	     23.38638709	    119.74817918
      4.38333330	      0.53627081	      3.54927185	    -28.82042326	      0.07930947	      0.99931565	     -0.04789807	     -4.62340805	     -2.14644911	     -4.80667857	      3.16566561	     11.19559983	      3.81187924	      0.00000000	     -2.69609968	     -2.57874384	     -5.64770898	      6.03771920	     10.19250235	      2.64594675	      0.00000000	     -2.23185977	     -0.64226027	      2.86726178	      3.93319307	    -98.08722394	    -34.46149351	     23.91339466	    113.69244416	     -0.28362729	    -89.60840573	    -50.62717839	     23.38164638	    119.74817918
      4.40000000	      0.54148588	      3.55218655	    -28.83099913	      0.07921688	      0.99932753	     -0.04790251	     -4.62457184	     -2.14656539	     -4.80725164	      3.16511922	     11.19702689	      3.81069570	      0.00000000	     -2.69335931	     -2.57742112	     -5.64746581	      6.03580966	     10.19151186	      2.64679783	      0.00000000	     -2.23057456	     -0.63476576	      2.86004140	      3.93370615	    -98.08841940	    -34.46366349	     23.91201658	    113.69256086	     -0.28344031	    -89.61160783	    -50.62732538	     23.38290225	    119.74817918
      4.41666670	      0.54464899	      3.55260279	    -28.84973478	      0.07913286	      0.99929820	     -0.04789327	     -4.62239784	     -2.14801118	     -4.80865742	      3.16111972	     11.19986314	      3.80834957	      0.00000000	     -2.69241555	     -2.57462013	     -5.64680766	      6.03446991	     10.18952808	      2.64851567	      0.00000000	     -2.23138440	     -0.62615892	      2.84741197	      3.93397817	    -98.09115605	    -34.46743938	     23.91112059	    113.69278289	     -0.28367777	    -89.61587827	    -50.62699425	     23.38642928	    119.74817918
      4.43333330	      0.54929258	      3.55515539	    -28.85958812	      0.07902142	      0.99933114	     -0.04787729	     -4.62179929	     -2.14784969	     -4.80954906	      3.15901678	     11.20141021	      3.80708049	      0.00000000	     -2.69064912	     -2.57369147	     -5.64632254	      6.03311070	     10.18857377	      2.64944763	      0.00000000	     -2.23129166	     -0.62004946	      2.84144880	      3.93373120	    -98.09193393	    -34.46921853	     23.91127421	    113.69291632	     -0.28398116	    -89.61794195	    -50.62663454	     23.38900969	    119.74817918
      4.45000000	      0.55362967	      3.55793990	    -28.88179900	      0.07885824	      0.99937380	     -0.04786971	     -4.61994846	     -2.14680969	     -4.81136208	      3.15446126	     11.20421432	      3.80479839	      0.00000000	     -2.68866183	     -2.57182382	     -5.64525585	      6.03130629	     10.18693819	      2.65119483	      0.00000000	     -2.23300878	     -0.61265964	      2.82661918	      3.93286859	    -98.09339974	    -34.47206578	     23.91282903	    113.69315361	     -0.28531034	    -89.62000240	    -50.62517547	     23.39525243	    119.74817918
      4.46666670	      0.55518367	      3.55885651	    -28.91231645	      0.07875104	      0.99937321	     -0.04785206	     -4.61094021	     -2.14636895	     -4.81584630	      3.14031462	     11.21151970	      3.79894418	      0.00000000	     -2.68730275	     -2.56971824	     -5.64280366	      6.02815605	     10.18263856	      2.65539739	      0.00000000	     -2.24530834	     -0.60509715	      2.81422491	      3.92648490	    -98.09686734	    -34.47795889	     23.92428910	    113.69401737	     -0.28957127	    -89.62002781	    -50.62056956	     23.41216729	    119.74817918
